<svg xmlns="http://www.w3.org/2000/svg" viewBox="0 0 100 100" width="32" height="32"><path d="M79.23,46.25L80.07,46.79L80.50,47.44L80.85,48.11L81.15,48.81L81.41,49.51L81.64,50.23L81.84,50.96L82.02,51.70L82.17,52.44L82.29,53.19L82.40,53.94L82.48,54.70L82.54,55.47L82.58,56.23L82.59,57.00L82.59,57.77L82.56,58.55L82.51,59.32L82.44,60.09L82.35,60.87L82.24,61.64L82.10,62.41L81.95,63.18L81.78,63.94L81.58,64.70L81.37,65.46L81.13,66.22L80.88,66.96L80.60,67.71L80.31,68.44L80.00,69.17L79.66,69.90L79.31,70.61L78.94,71.32L78.55,72.02L78.14,72.70L77.71,73.38L77.27,74.05L76.81,74.71L76.33,75.36L75.83,75.99L75.32,76.61L74.79,77.22L74.25,77.82L73.69,78.40L73.11,78.97L72.52,79.53L71.92,80.07L71.30,80.59L70.67,81.10L70.02,81.59L69.36,82.07L68.69,82.53L68.01,82.98L67.32,83.41L66.62,83.82L65.90,84.21L65.18,84.58L64.44,84.94L63.70,85.28L62.95,85.60L62.19,85.90L61.43,86.18L60.65,86.45L59.87,86.69L59.09,86.92L58.30,87.12L57.50,87.31L56.70,87.48L55.90,87.63L55.09,87.75L54.28,87.86L53.47,87.95L52.65,88.02L51.84,88.07L51.02,88.10L50.20,88.11L49.39,88.10L48.57,88.07L47.76,88.02L46.94,87.96L46.13,87.87L45.32,87.76L44.51,87.64L43.71,87.49L42.91,87.33L42.12,87.15L41.33,86.95L40.54,86.73L39.76,86.49L38.99,86.24L38.22,85.96L37.46,85.67L36.70,85.36L35.96,85.04L35.22,84.70L34.49,84.34L33.77,83.96L33.06,83.57L32.35,83.16L31.66,82.74L30.97,82.30L30.30,81.84L29.64,81.37L28.99,80.89L28.35,80.39L27.72,79.87L27.10,79.34L26.49,78.80L25.90,78.25L25.32,77.68L24.76,77.10L24.20,76.50L23.66,75.89L23.14,75.28L22.62,74.65L22.13,74.00L21.64,73.35L21.18,72.69L20.72,72.01L20.29,71.33L19.86,70.63L19.46,69.93L19.07,69.22L18.69,68.50L18.33,67.77L17.99,67.03L17.67,66.28L17.36,65.53L17.07,64.77L16.79,64.00L16.54,63.23L16.30,62.45L16.08,61.67L15.88,60.88L15.69,60.08L15.53,59.29L15.38,58.48L15.25,57.68L15.14,56.87L15.05,56.06L14.97,55.24L14.92,54.43L14.88,53.61L14.87,52.80L14.87,51.98L14.89,51.16L14.93,50.34L14.99,49.53L15.07,48.71L15.17,47.90L15.29,47.09L15.42,46.28L15.58,45.47L15.75,44.67L15.95,43.88L16.16,43.08L16.39,42.30L16.65,41.51L16.92,40.74L17.20,39.97L17.51,39.21L17.84,38.46L18.18,37.71L18.54,36.97L18.92,36.24L19.32,35.52L19.74,34.82L20.17,34.12L20.62,33.43L21.08,32.75L21.57,32.09L22.06,31.44L22.58,30.80L23.11,30.17L23.66,29.56L24.22,28.96L24.79,28.37L25.38,27.80L25.98,27.25L26.60,26.71L27.23,26.18L27.87,25.67L28.53,25.18L29.19,24.71L29.87,24.25L30.56,23.81L31.26,23.39L31.97,22.99L32.69,22.60L33.41,22.24L34.15,21.89L34.89,21.56L35.64,21.25L36.40,20.96L37.16,20.69L37.93,20.44L38.71,20.21L39.49,20.00L40.27,19.81L41.06,19.64L41.85,19.49L42.65,19.36L43.44,19.25L44.24,19.17L45.03,19.10L45.83,19.05L46.63,19.03L47.43,19.02L48.22,19.03L49.01,19.07L49.80,19.12L50.59,19.20L51.37,19.30L52.15,19.41L52.93,19.55L53.70,19.70L54.46,19.88L55.22,20.07L55.96,20.29L56.71,20.52L57.44,20.77L58.16,21.05L58.88,21.34L59.59,21.65L60.28,21.97L60.97,22.32L61.64,22.68L62.30,23.07L62.94,23.47L63.58,23.89L64.19,24.33L64.79,24.78L65.38,25.26L65.94,25.76L66.48,26.28L66.99,26.84L67.47,27.42L67.89,28.07L68.05,29.04L68.05,29.04L67.09,29.18L66.37,29.03L65.69,28.84L65.02,28.65L64.36,28.45L63.71,28.26L63.07,28.08L62.42,27.90L61.78,27.73L61.14,27.58L60.50,27.43L59.86,27.30L59.23,27.18L58.59,27.07L57.96,26.98L57.32,26.89L56.69,26.82L56.06,26.76L55.43,26.72L54.80,26.69L54.17,26.67L53.55,26.66L52.92,26.66L52.30,26.68L51.68,26.71L51.07,26.75L50.46,26.81L49.85,26.88L49.24,26.96L48.64,27.05L48.04,27.15L47.45,27.27L46.86,27.40L46.27,27.54L45.69,27.69L45.11,27.85L44.54,28.02L43.97,28.21L43.41,28.40L42.85,28.61L42.30,28.83L41.76,29.06L41.22,29.30L40.68,29.55L40.16,29.81L39.63,30.08L39.12,30.36L38.61,30.65L38.11,30.95L37.62,31.26L37.13,31.58L36.65,31.91L36.18,32.25L35.71,32.60L35.26,32.96L34.81,33.32L34.37,33.70L33.94,34.08L33.51,34.47L33.10,34.87L32.69,35.28L32.29,35.70L31.90,36.12L31.52,36.56L31.15,37.00L30.79,37.45L30.44,37.90L30.10,38.36L29.77,38.83L29.45,39.31L29.14,39.79L28.83,40.28L28.54,40.78L28.27,41.28L28.00,41.79L27.74,42.30L27.49,42.82L27.26,43.35L27.04,43.88L26.82,44.41L26.62,44.95L26.44,45.49L26.26,46.04L26.10,46.60L25.95,47.15L25.81,47.71L25.68,48.27L25.57,48.84L25.47,49.41L25.38,49.98L25.30,50.55L25.24,51.12L25.19,51.70L25.16,52.28L25.14,52.86L25.13,53.43L25.13,54.01L25.15,54.59L25.18,55.17L25.23,55.75L25.29,56.33L25.36,56.90L25.45,57.48L25.55,58.05L25.66,58.62L25.79,59.19L25.93,59.75L26.08,60.31L26.25,60.87L26.43,61.42L26.63,61.97L26.83,62.52L27.05,63.06L27.29,63.59L27.53,64.12L27.79,64.64L28.07,65.16L28.35,65.67L28.65,66.17L28.96,66.67L29.28,67.15L29.61,67.63L29.95,68.11L30.31,68.57L30.68,69.02L31.05,69.47L31.44,69.91L31.84,70.33L32.25,70.75L32.67,71.16L33.10,71.55L33.54,71.94L33.98,72.31L34.44,72.68L34.90,73.03L35.38,73.37L35.86,73.70L36.35,74.02L36.84,74.33L37.35,74.62L37.86,74.91L38.37,75.18L38.90,75.44L39.42,75.68L39.96,75.91L40.50,76.14L41.04,76.34L41.59,76.54L42.14,76.72L42.70,76.89L43.26,77.04L43.82,77.19L44.39,77.32L44.96,77.43L45.53,77.53L46.10,77.62L46.67,77.70L47.25,77.77L47.83,77.82L48.41,77.85L48.99,77.88L49.57,77.89L50.14,77.89L50.72,77.87L51.30,77.85L51.88,77.81L52.46,77.76L53.03,77.69L53.61,77.61L54.18,77.52L54.75,77.42L55.31,77.30L55.88,77.18L56.44,77.04L57.00,76.89L57.56,76.72L58.11,76.55L58.66,76.36L59.20,76.16L59.74,75.95L60.28,75.73L60.81,75.50L61.34,75.25L61.86,75.00L62.38,74.73L62.89,74.45L63.40,74.16L63.90,73.86L64.39,73.55L64.88,73.23L65.36,72.90L65.84,72.56L66.31,72.21L66.78,71.85L67.23,71.48L67.68,71.10L68.12,70.71L68.56,70.31L68.99,69.90L69.41,69.48L69.82,69.05L70.22,68.61L70.62,68.17L71.01,67.71L71.39,67.25L71.76,66.77L72.12,66.29L72.47,65.80L72.82,65.30L73.15,64.80L73.48,64.28L73.79,63.76L74.10,63.23L74.39,62.69L74.68,62.14L74.95,61.59L75.22,61.03L75.47,60.47L75.72,59.89L75.95,59.31L76.18,58.72L76.39,58.13L76.59,57.53L76.78,56.92L76.96,56.31L77.13,55.69L77.29,55.07L77.44,54.44L77.58,53.80L77.71,53.16L77.82,52.51L77.93,51.86L78.04,51.20L78.13,50.54L78.23,49.87L78.32,49.19L78.41,48.50L78.53,47.80L78.69,47.08L79.23,46.25Z" fill="#e84b3c"/><circle cx="82.71" cy="31.76" r="6.6" fill="#c79a2e"/></svg>
